<svg version="1.0" xmlns="http://www.w3.org/2000/svg"
 width="2188.000000pt" height="2196.000000pt" viewBox="0 0 2188.000000 2196.000000"
 preserveAspectRatio="xMidYMid meet">

<g transform="translate(0.000000,2196.000000) scale(0.100000,-0.100000)"
fill="#e3e5ea" stroke="none">
<path d="M10540 21850 c-36 -4 -54 -7 -40 -8 36 -3 111 -39 141 -68 l26 -24
-4 32 c-8 69 -13 78 -36 76 -12 -1 -51 -4 -87 -8z"/>
<path d="M11372 21833 c41 -46 41 -95 -7 -692 -26 -324 -52 -588 -60 -617 -8
-28 -24 -63 -36 -77 -11 -15 -18 -27 -14 -27 3 0 202 -16 442 -36 239 -19 449
-34 465 -32 26 3 33 10 54 62 13 33 23 61 21 63 -2 1 -22 -11 -44 -27 -91 -67
-182 -79 -442 -56 -235 21 -272 37 -292 123 -11 51 75 1138 96 1211 10 31 27
60 45 75 l29 25 -72 6 c-40 4 -101 9 -137 13 -64 6 -65 5 -48 -14z"/>
<path d="M9820 21793 c-81 -5 -83 -7 -61 -45 11 -18 24 -58 30 -88 17 -87 103
-1171 96 -1210 -4 -19 -15 -50 -26 -68 -18 -31 -18 -33 -2 -28 10 2 71 8 136
12 64 3 120 10 123 15 3 5 -2 9 -11 9 -9 0 -29 13 -45 28 -35 36 -31 -1 -94
762 -49 590 -52 615 -71 616 -11 0 -45 -1 -75 -3z"/>
<path d="M12986 21640 c11 -33 12 -55 4 -108 -20 -121 -251 -1116 -271 -1162
-11 -25 -31 -55 -45 -66 l-26 -22 113 -26 c63 -15 125 -30 139 -33 l25 -6 -28
28 c-33 34 -41 63 -33 118 4 23 70 315 146 649 77 334 140 611 140 617 0 5
-35 17 -77 26 -43 10 -83 19 -89 22 -9 3 -8 -7 2 -37z"/>
<path d="M13735 21491 c43 -19 90 -68 107 -110 11 -25 11 -24 20 19 4 25 7 51
6 59 -2 9 -33 21 -78 32 -95 23 -105 23 -55 0z"/>
<path d="M7625 21316 l-109 -33 27 -18 c16 -10 36 -34 47 -54 15 -29 116 -373
185 -626 8 -27 43 -153 79 -280 75 -262 86 -326 63 -372 l-16 -30 132 37 c73
20 279 79 460 130 l327 93 0 73 c0 41 -2 74 -4 74 -2 0 -16 -20 -30 -44 -57
-98 -133 -137 -427 -217 -174 -47 -223 -48 -268 -5 -15 14 -35 47 -44 73 -26
75 -304 1063 -311 1109 -5 26 -2 55 7 82 10 29 11 42 3 41 -6 -1 -60 -16 -121
-33z"/>
<path d="M6115 21233 c-27 -14 -52 -27 -54 -29 -6 -5 31 -214 39 -219 6 -3 73
266 67 271 -1 1 -24 -9 -52 -23z"/>
<path d="M14541 21239 c24 -46 3 -115 -170 -545 -283 -704 -285 -709 -342
-743 l-30 -18 68 -28 c37 -15 89 -35 114 -45 l46 -18 -5 54 c-3 40 1 71 18
117 58 158 412 1024 438 1070 16 29 42 58 60 68 l32 17 -115 46 c-63 25 -117
46 -120 46 -3 0 -1 -10 6 -21z"/>
<path d="M10540 21219 c-15 -18 -47 -38 -80 -49 -50 -17 -52 -19 -22 -19 41
-1 99 -25 131 -54 l24 -22 -7 49 c-3 27 -6 66 -6 87 0 46 -7 47 -40 8z"/>
<path d="M15310 20910 c0 -79 -94 -138 -435 -273 -105 -41 -225 -88 -268 -103
-42 -16 -75 -33 -73 -39 2 -5 72 -168 155 -361 84 -193 154 -367 158 -387 7
-48 -1 -79 -31 -109 l-25 -24 177 -72 c97 -40 181 -72 185 -72 5 0 -7 19 -26
43 -57 69 -107 172 -287 592 -95 220 -174 406 -177 412 -3 7 3 16 13 20 11 3
150 62 309 131 312 134 391 164 481 182 l58 12 -57 24 c-32 14 -80 33 -107 44
l-50 20 0 -40z"/>
<path d="M13583 20899 c-17 -11 -54 -22 -82 -26 l-51 -6 45 -28 c25 -16 53
-42 64 -59 l19 -31 17 73 c9 40 18 79 21 86 4 15 5 15 -33 -9z"/>
<path d="M6435 20851 c-23 -5 -10 -8 50 -13 234 -17 443 -208 606 -552 140
-299 141 -518 2 -716 -18 -24 -10 -19 24 17 64 69 117 159 150 258 25 72 27
95 28 225 0 138 -2 149 -33 240 -51 146 -104 232 -207 335 -73 74 -106 99
-175 133 -141 69 -328 99 -445 73z"/>
<path d="M6378 20833 c7 -3 16 -2 19 1 4 3 -2 6 -13 5 -11 0 -14 -3 -6 -6z"/>
<path d="M6045 20628 c-141 -164 -204 -404 -161 -611 45 -221 197 -443 375
-551 124 -75 299 -115 427 -96 38 5 76 10 84 11 8 1 -27 5 -77 9 -81 6 -103
12 -177 49 -154 76 -300 239 -410 459 -144 288 -162 532 -52 715 19 31 33 57
31 57 -2 0 -20 -19 -40 -42z"/>
<path d="M10781 20540 c-36 -46 -91 -85 -148 -106 -36 -14 -34 -15 51 -9 50 3
91 7 94 9 4 5 41 146 38 146 -2 0 -17 -18 -35 -40z"/>
<path d="M16158 20486 l-37 -54 47 15 c88 27 150 6 347 -120 55 -35 99 -69 98
-74 -3 -16 -640 -1021 -681 -1076 -20 -26 -53 -55 -74 -65 -21 -9 -38 -19 -38
-22 0 -3 44 -33 98 -67 l97 -62 6 47 c3 26 17 68 29 92 20 40 663 1065 679
1082 9 10 217 -124 283 -182 55 -49 76 -86 93 -164 l6 -30 30 50 c16 27 29 54
29 60 0 9 -960 625 -972 624 -2 -1 -20 -25 -40 -54z"/>
<path d="M13562 20159 c-61 -33 -84 -39 -135 -40 l-62 -1 95 -23 95 -23 20 24
c18 22 69 105 63 103 -2 -1 -36 -19 -76 -40z"/>
<path d="M4948 19997 c-48 -34 -88 -64 -88 -67 0 -3 10 -10 23 -15 12 -6 30
-26 39 -45 34 -67 21 -202 -58 -604 -25 -125 -44 -230 -42 -232 3 -2 179 -31
394 -64 214 -34 404 -68 422 -77 33 -16 49 -36 67 -85 l10 -27 144 104 c79 57
147 107 152 112 5 5 -42 9 -109 10 -93 0 -208 15 -572 73 -250 39 -457 74
-459 76 -4 4 60 423 100 651 10 62 30 143 44 180 13 37 23 68 22 69 -1 1 -41
-25 -89 -59z"/>
<path d="M4283 19516 c-106 -76 -115 -86 -77 -86 19 0 42 -15 79 -52 52 -54
678 -915 710 -977 9 -19 20 -53 24 -77 l6 -42 98 71 97 71 -37 12 c-21 7 -54
31 -74 54 -41 45 -665 904 -699 962 -12 21 -25 58 -28 83 l-7 46 -92 -65z"/>
<path d="M17630 19543 c0 -57 -29 -95 -417 -545 -416 -483 -416 -483 -483
-497 -29 -6 -29 -6 60 -83 49 -43 91 -78 93 -78 2 0 7 17 11 38 3 20 21 60 40
87 34 49 812 958 825 963 4 1 40 -18 81 -44 41 -25 68 -39 60 -31 -12 11 -176
151 -252 215 -17 14 -18 12 -18 -25z"/>
<path d="M18034 19198 c63 -122 56 -240 -19 -355 -103 -156 -294 -207 -470
-125 -37 18 -69 31 -70 30 -1 -2 -19 -194 -39 -428 l-36 -425 53 -48 c28 -26
64 -57 78 -67 l27 -20 -14 41 c-27 76 -27 176 0 479 14 162 28 321 32 352 l6
57 67 -34 c188 -94 338 -85 452 28 23 23 53 65 66 94 65 140 27 281 -116 433
l-51 55 34 -67z"/>
<path d="M3321 18631 c-184 -196 -336 -361 -338 -367 -2 -6 14 -31 36 -55 l39
-44 -5 40 c-7 52 10 111 45 164 16 23 125 146 243 272 192 205 215 227 221
207 4 -13 84 -394 178 -848 94 -453 173 -826 174 -827 2 -2 179 184 394 414
l390 417 -29 40 c-69 96 -64 95 -61 16 3 -61 0 -79 -26 -133 -17 -36 -58 -94
-98 -138 -151 -165 -457 -489 -463 -489 -3 0 -84 375 -180 833 -96 457 -177
837 -180 843 -3 7 -151 -143 -340 -345z"/>
<path d="M18777 18468 c-4 -64 -88 -377 -228 -851 l-20 -67 -162 -141 c-171
-148 -244 -199 -289 -199 -16 0 -28 -2 -28 -5 0 -3 35 -46 78 -95 l77 -89 8
33 c12 49 59 99 225 242 81 70 157 136 169 147 13 11 40 23 60 27 l38 8 -33 1
c-27 1 -32 4 -28 19 3 9 44 150 91 312 125 434 141 467 224 479 l39 6 -100
115 c-55 63 -103 119 -107 123 -5 5 -11 -25 -14 -65z"/>
<path d="M7238 17899 c-616 -37 -1026 -226 -1268 -585 -171 -253 -261 -587
-300 -1109 -14 -196 -14 -9771 0 -9973 46 -643 178 -1016 452 -1278 215 -205
486 -315 920 -372 125 -16 374 -17 3973 -17 3111 0 3860 2 3945 13 904 113
1335 633 1420 1711 6 89 10 935 10 2479 0 1644 3 2349 11 2363 7 14 7 24 0 33
-7 8 -12 813 -14 2547 -4 2714 -2 2615 -52 2916 -100 599 -352 950 -810 1131
-195 78 -429 123 -725 142 -194 12 -7361 12 -7562 -1z m7546 -269 c865 -55
1202 -358 1300 -1170 34 -274 36 -430 36 -2800 l-1 -2375 -24 -40 -25 -40 0
58 0 57 -560 0 -560 0 0 980 0 980 560 0 560 0 0 105 0 105 -560 0 -560 0 0
1033 0 1034 227 6 c124 4 376 7 560 7 l333 0 0 105 0 105 -560 0 -560 0 0 900
0 900 -110 0 -110 0 0 -900 0 -900 -501 0 c-469 0 -501 1 -495 17 4 10 190
314 413 678 224 363 413 671 421 685 20 32 -40 -25 -788 -764 l-624 -616 -133
0 -133 0 0 905 0 905 -110 0 -110 0 0 -205 0 -205 -304 -662 c-167 -365 -312
-680 -322 -700 l-18 -38 -453 0 -453 0 0 900 0 900 -110 0 -110 0 0 -900 0
-900 -770 0 -770 0 0 905 0 905 -105 0 -105 0 0 -896 c0 -849 -1 -896 -17
-891 -10 3 -58 22 -106 42 -337 140 -690 133 -1017 -21 l-116 -54 -147 0 -147
0 0 915 0 915 -110 0 -110 0 0 -915 0 -915 -710 0 -710 0 0 -105 0 -105 710 0
710 0 0 -128 0 -129 -65 -86 c-259 -344 -506 -816 -756 -1447 -49 -124 -96
-240 -104 -257 l-15 -33 -240 0 -240 0 0 -105 0 -105 200 0 c110 0 200 -4 200
-9 0 -16 -387 -1118 -416 -1186 -11 -25 -13 317 -14 1970 0 1227 4 2054 10
2140 39 543 138 864 335 1083 197 219 543 341 1040 365 179 9 7328 6 7469 -3z
m-2119 -1848 c-12 -13 -15 10 -8 84 l8 79 3 -79 c2 -43 0 -81 -3 -84z m-3734
-242 c59 -24 180 -92 203 -116 14 -14 16 -117 16 -975 l0 -959 -775 0 -775 0
0 786 0 787 55 66 c75 92 236 247 318 305 37 26 101 66 143 87 l75 39 344 0
c323 0 347 -1 396 -20z m1969 -1015 l0 -1036 -121 3 -121 3 -72 200 c-294 814
-616 1384 -996 1763 l-103 102 707 0 706 0 0 -1035z m1020 1028 c0 -11 -781
-1716 -791 -1727 -5 -6 -9 381 -9 862 l0 872 400 0 c220 0 400 -3 400 -7z
m750 -125 l0 -133 -41 -33 c-38 -32 -40 -33 -35 -10 3 12 10 82 16 153 14 155
14 155 40 155 19 0 20 -6 20 -132z m260 129 c0 -2 -9 -12 -20 -22 -19 -18 -20
-17 -20 3 0 15 6 22 20 22 11 0 20 -2 20 -3z m1800 -1032 l0 -1035 -920 0
-920 0 0 471 0 470 347 565 348 564 572 0 573 0 0 -1035z m-5226 554 c265
-314 551 -853 759 -1429 25 -69 49 -133 52 -142 7 -17 -20 -18 -474 -18 l-481
0 0 872 0 872 36 -35 c20 -18 69 -73 108 -120z m-2127 -1586 c-2 -2 -135 -2
-295 -1 l-291 3 83 205 c45 113 106 259 135 325 69 154 257 526 318 630 l48
80 3 -619 c1 -341 1 -621 -1 -623z m5293 287 l0 -290 -176 0 c-154 0 -175 2
-170 15 6 17 339 564 344 565 1 0 2 -130 2 -290z m-2 -692 l-3 -192 -638 -458
c-351 -252 -640 -458 -642 -458 -2 0 176 293 397 650 l400 650 244 0 244 0 -2
-192z m522 188 c0 -4 -255 -189 -287 -209 -10 -6 -13 14 -13 103 l0 110 150 0
c83 0 150 -2 150 -4z m1540 -974 l0 -979 -472 -6 c-260 -4 -674 -7 -920 -7
l-448 0 0 708 0 708 148 261 c81 144 154 268 161 277 12 14 91 16 772 16 l759
0 0 -978z m-7350 -12 l0 -980 -710 0 -710 0 0 -110 0 -110 710 0 710 0 0
-1020 0 -1020 -710 0 -710 0 0 -110 0 -110 710 0 710 0 0 -980 0 -980 -715 0
-715 0 0 -110 0 -110 715 0 715 0 0 -910 0 -909 -97 5 c-354 19 -631 85 -812
191 -331 196 -484 547 -531 1223 -6 91 -10 1060 -10 2618 0 2123 2 2472 14
2472 16 0 89 122 142 237 88 193 172 416 384 1023 167 476 228 648 235 661 4
5 143 9 341 9 l334 0 0 -980z m1770 0 l0 -980 -775 0 -775 0 0 980 0 980 775
0 775 0 0 -980z m1287 839 c23 -75 65 -219 92 -321 l51 -185 -291 -634 c-160
-349 -296 -644 -302 -656 l-10 -23 -309 0 -308 0 0 980 0 980 517 -2 518 -3
42 -136z m433 132 c0 -4 -19 -48 -42 -97 l-41 -89 -23 74 c-41 134 -45 121 36
121 38 0 70 -4 70 -9z m1800 -1441 l0 -510 -291 0 c-160 0 -289 4 -287 8 6 15
573 1012 576 1012 1 0 2 -229 2 -510z m0 -1745 l0 -1025 -429 0 c-339 0 -431
3 -439 13 -28 34 -352 1053 -352 1108 0 16 483 880 512 917 8 9 92 12 359 12
l349 0 0 -1025z m2060 5 l0 -1020 -920 0 -920 0 0 1020 0 1020 920 0 920 0 0
-1020z m1290 1014 c0 -4 -27 -72 -59 -153 -32 -80 -120 -308 -194 -506 -199
-530 -295 -777 -424 -1092 l-116 -283 -139 0 -138 0 0 1020 0 1020 535 0 c294
0 535 -3 535 -6z m-6872 -806 l-3 -803 -101 -215 -101 -215 -671 -3 -672 -2 0
1020 0 1020 775 0 775 0 -2 -802z m719 785 c-6 -22 -468 -1027 -490 -1069 -15
-27 -16 13 -17 529 l0 557 256 0 c239 0 256 -1 251 -17z m6250 -2908 c-4
-2066 -1 -1957 -62 -2261 -111 -550 -374 -867 -827 -998 -72 -21 -241 -56
-270 -56 -5 0 -8 407 -8 905 l0 905 555 0 555 0 0 110 0 110 -555 0 -555 0 0
445 0 446 112 207 c121 224 193 371 328 667 l87 190 296 3 297 2 0 110 0 110
-249 0 -249 0 55 133 c66 158 264 667 394 1011 l94 249 3 -199 c1 -109 1
-1049 -1 -2089z m-5631 1559 l-326 -669 -341 -3 -341 -2 242 247 c368 376
1085 1099 1088 1097 2 -1 -143 -303 -322 -670z m759 -6 c9 -35 61 -193 113
-353 53 -159 98 -296 100 -302 3 -10 -36 -13 -167 -13 l-171 0 0 276 0 276 48
89 c26 49 50 89 53 89 4 0 14 -28 24 -62z m-345 -588 l0 -80 -45 0 c-25 0 -45
3 -45 6 0 8 83 154 87 154 2 0 3 -36 3 -80z m729 -515 c301 -751 597 -1267
948 -1653 l72 -79 -226 -6 c-124 -4 -469 -7 -765 -7 l-538 0 0 980 0 979 63 4
c34 2 129 3 210 3 l148 -1 88 -220z m1041 -522 c0 -424 -4 -743 -9 -738 -4 6
-33 44 -63 85 -164 224 -344 544 -498 885 -88 193 -210 487 -210 504 0 8 120
11 390 11 l390 0 0 -747z m2060 344 l0 -403 -66 -114 c-169 -293 -362 -558
-538 -738 -119 -123 -198 -187 -308 -253 l-81 -49 -264 0 c-250 0 -266 1 -306
21 -60 31 -174 110 -229 159 l-48 42 0 869 0 869 920 0 920 0 0 -403z m390
392 c0 -13 -161 -359 -166 -359 -2 0 -4 83 -4 185 l0 185 85 0 c56 0 85 -4 85
-11z m-6299 -41 c-11 -24 -89 -196 -175 -382 -86 -187 -154 -341 -152 -343 2
-2 147 143 323 322 176 179 323 325 326 325 4 0 7 -255 6 -567 0 -313 -4 -554
-9 -538 -4 17 -16 101 -25 188 -10 87 -19 156 -21 155 -1 -2 -64 -241 -138
-532 -75 -291 -139 -533 -142 -537 -3 -5 -277 -9 -610 -9 l-604 0 0 980 0 980
620 0 619 0 -18 -42z m1185 -50 c-106 -224 -628 -1294 -637 -1303 -5 -5 -9
265 -9 693 l0 702 345 0 344 0 -43 -92z m894 -888 l0 -980 -460 0 c-253 0
-460 3 -460 8 0 4 68 86 149 182 82 96 148 176 147 178 -2 1 -153 -70 -335
-159 -183 -88 -335 -158 -338 -156 -3 4 1011 1802 1063 1885 14 21 21 22 124
22 l110 0 0 -980z m3830 -700 l0 -270 -221 0 -221 0 83 91 c103 112 221 257
297 366 31 45 58 82 60 82 1 1 2 -120 2 -269z m-3830 -1405 l0 -915 -770 0
-770 0 0 660 0 660 57 67 c31 38 117 140 191 228 74 88 148 172 163 188 l29
27 550 0 550 0 0 -915z m1770 5 l0 -910 110 0 110 0 0 910 0 910 24 0 c13 0
70 -22 127 -49 293 -140 565 -140 858 0 l104 49 363 0 364 0 0 -915 0 -915
-1805 0 -1805 0 0 915 0 915 775 0 775 0 0 -910z m-3920 868 c-89 -334 -430
-1681 -427 -1684 2 -2 186 212 408 475 222 264 407 480 412 480 4 1 6 -236 5
-526 l-3 -528 -772 -3 -773 -2 0 910 0 910 579 0 579 0 -8 -32z"/>
<path d="M19477 17704 c-13 -66 -66 -106 -171 -130 l-61 -14 65 8 c36 4 120 7
186 7 l122 0 -29 35 c-16 19 -46 55 -67 79 l-39 44 -6 -29z"/>
<path d="M2550 17695 c0 -37 -35 -76 -112 -128 -46 -30 -99 -69 -118 -87 -27
-24 -22 -22 20 9 31 22 82 53 115 68 54 25 71 28 167 28 59 0 104 3 100 6 -21
18 -163 119 -167 119 -3 0 -5 -7 -5 -15z"/>
<path d="M19193 17553 c9 -2 25 -2 35 0 9 3 1 5 -18 5 -19 0 -27 -2 -17 -5z"/>
<path d="M19133 17543 c9 -2 23 -2 30 0 6 3 -1 5 -18 5 -16 0 -22 -2 -12 -5z"/>
<path d="M19063 17533 c9 -2 25 -2 35 0 9 3 1 5 -18 5 -19 0 -27 -2 -17 -5z"/>
<path d="M18993 17523 c9 -2 25 -2 35 0 9 3 1 5 -18 5 -19 0 -27 -2 -17 -5z"/>
<path d="M18845 17505 c-38 -7 -59 -13 -45 -13 14 0 59 5 100 12 41 8 62 14
45 14 -16 0 -61 -6 -100 -13z"/>
<path d="M18723 17483 c9 -2 25 -2 35 0 9 3 1 5 -18 5 -19 0 -27 -2 -17 -5z"/>
<path d="M2264 17418 l-19 -23 23 19 c12 11 22 21 22 23 0 8 -8 2 -26 -19z"/>
<path d="M2207 17323 c-29 -62 -32 -77 -32 -163 0 -81 4 -103 26 -150 36 -76
77 -121 148 -158 135 -72 258 -51 586 103 239 112 261 119 365 120 79 0 102
-4 136 -22 49 -26 110 -92 131 -142 23 -54 21 -164 -5 -231 -13 -34 -16 -48
-7 -36 40 52 59 130 60 231 0 87 -4 107 -26 156 -37 79 -90 133 -167 171 -61
30 -75 33 -157 32 -103 0 -160 -20 -407 -138 -76 -36 -182 -82 -235 -102 -195
-74 -325 -43 -399 96 -29 54 -27 200 4 258 12 23 20 42 17 42 -3 0 -20 -30
-38 -67z"/>
<path d="M19643 16810 c-380 -56 -693 -381 -693 -720 0 -111 44 -254 111 -365
62 -102 78 -112 33 -20 -70 141 -87 256 -59 388 41 195 211 377 469 502 172
83 285 115 413 115 132 0 233 -34 336 -111 50 -39 50 -38 -14 23 -79 75 -153
121 -247 154 -115 39 -232 51 -349 34z"/>
<path d="M3294 16410 c-86 -38 -183 -47 -269 -24 -11 3 23 -26 75 -64 l94 -70
13 37 c12 35 33 58 103 113 41 32 39 33 -16 8z"/>
<path d="M20447 16068 c-3 -23 -23 -77 -44 -120 -38 -76 -38 -77 -13 -60 15 9
59 37 98 62 39 25 71 47 71 50 0 3 -14 12 -32 20 -17 8 -39 30 -49 48 -23 47
-25 47 -31 0z"/>
<path d="M2605 15445 c28 -66 30 -145 6 -225 -23 -76 -132 -321 -176 -396 -33
-56 -74 -78 -134 -72 -32 4 -189 70 -511 218 -256 117 -496 228 -535 247 -70
36 -125 83 -125 109 0 33 -18 7 -60 -87 -25 -56 -46 -105 -48 -110 -2 -5 16
-6 40 -3 52 7 63 3 379 -141 129 -59 337 -155 463 -212 343 -156 360 -166 394
-223 l21 -34 10 25 c5 13 93 206 195 429 l186 404 -33 34 c-17 19 -44 43 -59
53 l-27 20 14 -36z"/>
<path d="M20796 15413 l-50 -15 53 -25 c57 -27 97 -73 137 -158 33 -69 22 -31
-29 99 -23 60 -47 110 -52 112 -6 1 -32 -5 -59 -13z"/>
<path d="M20960 15155 c0 -5 5 -17 10 -25 5 -8 10 -10 10 -5 0 6 -5 17 -10 25
-5 8 -10 11 -10 5z"/>
<path d="M20980 15105 c0 -5 5 -17 10 -25 5 -8 10 -10 10 -5 0 6 -5 17 -10 25
-5 8 -10 11 -10 5z"/>
<path d="M19474 15044 c5 -10 24 -61 43 -112 20 -51 38 -91 40 -89 2 2 -1 17
-7 32 -6 15 -9 29 -8 31 2 1 378 -90 836 -203 458 -113 835 -204 837 -201 3 2
-7 33 -21 69 l-26 65 -836 208 c-460 115 -843 211 -851 214 -11 4 -13 1 -7
-14z"/>
<path d="M21010 15025 c0 -5 5 -17 10 -25 5 -8 10 -10 10 -5 0 6 -5 17 -10 25
-5 8 -10 11 -10 5z"/>
<path d="M21030 14975 c0 -5 5 -17 10 -25 5 -8 10 -10 10 -5 0 6 -5 17 -10 25
-5 8 -10 11 -10 5z"/>
<path d="M21060 14895 c0 -5 5 -17 10 -25 5 -8 10 -10 10 -5 0 6 -5 17 -10 25
-5 8 -10 11 -10 5z"/>
<path d="M21080 14845 c0 -5 5 -17 10 -25 5 -8 10 -10 10 -5 0 6 -5 17 -10 25
-5 8 -10 11 -10 5z"/>
<path d="M19566 14810 c4 -14 15 -43 25 -65 11 -22 16 -29 13 -15 -4 14 -15
43 -25 65 -11 22 -16 29 -13 15z"/>
<path d="M21110 14765 c0 -5 5 -17 10 -25 5 -8 10 -10 10 -5 0 6 -5 17 -10 25
-5 8 -10 11 -10 5z"/>
<path d="M21130 14715 c0 -5 5 -17 10 -25 5 -8 10 -10 10 -5 0 6 -5 17 -10 25
-5 8 -10 11 -10 5z"/>
<path d="M19616 14680 c4 -14 15 -43 25 -65 11 -22 16 -29 13 -15 -4 14 -15
43 -25 65 -11 22 -16 29 -13 15z"/>
<path d="M19666 14550 c4 -14 15 -43 25 -65 11 -22 16 -29 13 -15 -4 14 -15
43 -25 65 -11 22 -16 29 -13 15z"/>
<path d="M19716 14420 c4 -14 15 -43 25 -65 11 -22 16 -29 13 -15 -4 14 -15
43 -25 65 -11 22 -16 29 -13 15z"/>
<path d="M1138 14390 c-199 -34 -412 -176 -496 -332 l-24 -43 28 35 c111 139
243 194 459 193 226 -1 534 -90 700 -202 58 -40 143 -133 174 -191 18 -33 41
-92 51 -132 l20 -73 -6 65 c-16 175 -81 316 -208 448 -165 172 -464 271 -698
232z"/>
<path d="M19760 14308 c0 -4 27 -77 61 -162 67 -172 57 -163 154 -142 45 10
55 15 40 20 -108 40 -158 88 -216 209 -21 45 -39 79 -39 75z"/>
<path d="M161 14118 c-7 -24 -14 -50 -17 -59 -3 -12 22 -33 91 -78 52 -33 97
-61 100 -61 3 0 -31 54 -75 120 -44 66 -82 120 -84 120 -1 0 -8 -19 -15 -42z"/>
<path d="M21372 13957 c-22 -54 -91 -145 -114 -150 -268 -66 -1088 -250 -1129
-254 -41 -4 -64 -1 -88 12 l-34 17 6 -24 c3 -12 9 -40 12 -60 8 -45 14 -46 45
-13 12 13 50 33 84 44 61 20 1097 263 1102 258 1 -1 -220 -290 -492 -642 -271
-352 -489 -641 -484 -643 5 -2 284 60 621 138 516 120 620 141 672 138 34 -2
70 -8 81 -13 15 -7 17 -5 13 11 -3 10 -11 38 -17 62 l-11 43 -34 -30 c-19 -16
-64 -39 -102 -51 -82 -25 -1015 -241 -1020 -236 -2 2 207 276 465 608 258 332
471 609 475 615 3 5 -4 52 -17 104 -22 89 -24 92 -34 66z"/>
<path d="M555 13632 c11 -143 92 -310 205 -422 143 -144 367 -230 595 -230
225 1 447 116 567 294 l41 61 -51 -51 c-61 -60 -141 -105 -232 -130 -87 -24
-313 -24 -420 0 -393 88 -628 253 -695 489 l-15 52 5 -63z"/>
<path d="M575 12680 c-112 -43 -202 -158 -244 -310 -28 -99 -26 -129 2 -59 46
111 119 175 237 205 83 21 193 14 275 -17 78 -29 156 -102 195 -183 l29 -61 1
52 c0 143 -55 260 -154 327 -97 66 -240 85 -341 46z"/>
<path d="M302 12220 c0 -19 2 -27 5 -17 2 9 2 25 0 35 -3 9 -5 1 -5 -18z"/>
<path d="M277 12040 c-10 -80 -20 -158 -23 -173 -6 -29 -6 -29 19 -13 13 9 46
19 73 22 57 7 1125 -128 1214 -152 30 -9 67 -27 82 -41 33 -31 32 -32 47 93
16 132 17 127 -19 109 -49 -25 -148 -17 -765 63 l-590 77 -10 80 -10 80 -18
-145z"/>
<path d="M21723 12046 c-28 -43 -65 -71 -463 -352 l-325 -229 -115 -7 c-63 -3
-178 -7 -256 -7 -130 -1 -144 1 -188 23 l-48 24 6 -36 c3 -20 6 -77 6 -126 l0
-89 23 20 c40 37 88 44 340 54 l248 10 327 -192 c364 -214 435 -261 480 -316
l31 -38 1 85 c0 47 -3 95 -6 107 -6 23 -6 23 -31 4 -36 -29 -77 -34 -135 -17
-43 12 -611 336 -641 366 -8 7 370 278 552 395 87 56 152 70 197 40 14 -9 28
-14 30 -12 3 3 1 77 -3 165 l-8 161 -22 -33z"/>
<path d="M1230 11221 c-45 -14 -104 -49 -141 -83 -53 -50 -93 -114 -202 -323
-112 -215 -193 -343 -241 -380 -137 -104 -313 -57 -398 108 -14 28 -24 71 -29
132 l-7 90 2 -96 c3 -84 7 -106 34 -162 98 -210 324 -284 501 -166 89 60 137
128 296 429 48 91 104 188 125 215 152 205 427 168 512 -68 l19 -52 -6 44
c-16 120 -127 258 -240 300 -57 22 -173 28 -225 12z"/>
<path d="M368 11103 c-98 -3 -125 -11 -98 -28 18 -11 10 -96 -15 -167 -34 -94
-31 -107 6 -28 41 87 88 142 159 186 33 20 60 38 60 40 0 2 -1 3 -2 2 -2 -1
-51 -4 -110 -5z"/>
<path d="M1702 10835 c0 -16 2 -22 5 -12 2 9 2 23 0 30 -3 6 -5 -1 -5 -18z"/>
<path d="M221 10794 c0 -11 3 -14 6 -6 3 7 2 16 -1 19 -3 4 -6 -2 -5 -13z"/>
<path d="M1645 10528 c-28 -59 -100 -135 -159 -169 l-51 -29 113 0 c108 0 112
1 102 19 -14 28 -12 87 5 155 9 33 14 60 13 62 -2 1 -12 -16 -23 -38z"/>
<path d="M20802 10320 c-164 -23 -301 -89 -413 -200 -88 -88 -138 -178 -168
-305 -22 -91 -34 -208 -20 -199 5 3 9 18 9 34 0 42 38 158 72 217 121 215 356
315 663 284 401 -40 660 -203 730 -458 19 -68 19 -15 0 64 -75 320 -365 544
-730 566 -44 3 -108 1 -143 -3z"/>
<path d="M1631 9902 c54 -40 98 -93 118 -142 18 -47 13 5 -14 136 -4 16 -15
23 -47 28 -24 4 -59 9 -78 12 -35 6 -35 6 21 -34z"/>
<path d="M375 9666 c-57 -14 -56 -13 -30 -131 l13 -60 1 46 c1 33 11 61 35
102 19 31 34 56 33 56 -1 -1 -24 -7 -52 -13z"/>
<path d="M992 9646 l-62 -11 36 -29 c20 -16 47 -52 60 -80 l24 -51 0 50 c0 34
8 63 25 93 l24 42 -22 -1 c-12 -1 -50 -7 -85 -13z"/>
<path d="M1841 9267 c-2 -33 -31 -76 -61 -92 -16 -8 -318 -67 -672 -131 -354
-64 -645 -118 -647 -120 -7 -6 21 -174 29 -174 4 0 15 9 25 20 10 11 48 29 84
40 95 28 1115 212 1186 214 43 1 69 -4 88 -17 l27 -17 -6 27 c-30 160 -52 265
-53 250z"/>
<path d="M21505 9133 c-22 -19 -70 -49 -108 -67 l-67 -33 67 -6 c74 -7 163 -9
163 -4 0 2 -7 19 -16 37 -14 26 -15 39 -6 68 6 20 10 37 9 38 -1 1 -20 -14
-42 -33z"/>
<path d="M20043 8667 c-18 -56 -35 -110 -38 -120 -7 -16 -5 -16 30 -1 30 12
46 13 90 4 65 -14 1107 -360 1151 -383 18 -9 43 -30 58 -47 18 -22 28 -27 31
-18 3 7 20 59 39 116 34 100 34 103 13 95 -61 -22 -120 -7 -657 172 -294 97
-559 189 -589 204 -31 15 -61 38 -70 53 -9 16 -18 28 -21 28 -4 0 -20 -46 -37
-103z"/>
<path d="M1907 8570 c-50 -9 -74 -20 -43 -20 54 0 149 -82 189 -165 31 -63
251 -724 244 -732 -3 -3 -373 104 -822 237 -449 133 -818 240 -821 237 -3 -3
4 -36 16 -74 16 -48 28 -69 39 -69 9 0 382 -109 829 -243 447 -134 815 -241
818 -238 3 3 -74 247 -172 541 -174 521 -180 536 -204 535 -14 -1 -47 -5 -73
-9z"/>
<path d="M19785 7889 c-10 -27 -75 -223 -75 -226 0 -2 9 1 19 7 50 26 109 12
615 -155 658 -218 642 -212 689 -257 22 -21 41 -37 43 -36 1 2 18 54 37 116
29 94 33 112 19 105 -9 -4 -44 -8 -77 -7 -50 0 -150 31 -595 178 -294 98 -557
190 -584 205 -27 14 -57 39 -67 55 -13 22 -20 26 -24 15z"/>
<path d="M883 7420 c15 -54 71 -216 77 -223 4 -5 33 -3 64 4 l56 12 -38 17
c-53 24 -101 75 -134 145 -16 33 -27 53 -25 45z"/>
<path d="M17760 4219 c-108 -21 -195 -75 -431 -268 l-168 -136 37 -13 c20 -7
56 -32 80 -55 52 -50 706 -843 747 -905 16 -24 34 -63 40 -88 l11 -45 94 77
94 78 -33 7 c-18 4 -49 20 -69 36 -20 17 -216 247 -434 513 l-397 483 21 31
c42 59 127 134 185 162 51 25 69 29 148 29 80 0 97 -3 150 -30 81 -41 164
-125 204 -207 50 -101 52 -189 7 -313 -4 -11 13 3 38 30 93 101 130 224 102
336 -38 147 -152 256 -292 279 -67 11 -72 11 -134 -1z"/>
<path d="M4298 3830 c-245 -30 -473 -177 -596 -387 -145 -245 -129 -536 43
-779 61 -86 79 -95 39 -21 -52 98 -67 172 -62 302 4 90 11 128 38 209 98 290
348 541 611 612 83 22 228 22 288 0 65 -24 61 -13 -6 16 -102 45 -233 63 -355
48z"/>
<path d="M18785 3528 c-68 -37 -56 -135 19 -154 28 -7 81 18 90 41 29 78 -41
151 -109 113z"/>
<path d="M16732 3468 l-93 -61 24 -21 c38 -32 47 -58 47 -135 0 -87 -25 -221
-97 -514 -30 -126 -54 -230 -52 -231 2 -2 168 -35 369 -75 201 -39 383 -76
404 -82 47 -13 92 -57 101 -99 4 -17 9 -30 11 -30 5 0 303 197 316 209 4 3
-43 6 -105 7 -99 1 -164 11 -572 94 -253 51 -463 95 -466 99 -9 8 134 701 161
781 12 35 28 77 36 92 8 15 13 28 12 28 -2 -1 -45 -28 -96 -62z"/>
<path d="M5054 3396 c19 -54 27 -155 19 -214 -6 -34 -9 -62 -7 -62 1 0 29 38
63 85 46 65 56 85 43 85 -27 0 -61 28 -94 79 -17 25 -28 38 -24 27z"/>
<path d="M16042 3012 c-94 -63 -111 -82 -74 -82 40 0 93 -70 388 -517 173
-260 325 -496 340 -525 14 -28 29 -71 33 -95 l6 -43 103 69 c103 68 103 68 71
75 -20 4 -49 23 -73 49 -43 45 -618 912 -669 1007 -22 42 -28 64 -24 93 3 20
4 37 4 37 -1 0 -48 -31 -105 -68z"/>
<path d="M5522 2999 c-131 -22 -264 -86 -358 -172 -69 -63 -136 -145 -128
-158 3 -5 -11 -29 -30 -52 -76 -93 -126 -253 -126 -402 0 -166 63 -341 158
-442 26 -27 42 -43 36 -34 -96 133 -110 343 -39 556 52 155 186 376 299 491
120 121 239 184 381 201 l60 7 -40 7 c-52 10 -146 9 -213 -2z"/>
<path d="M4643 2849 c-2 -54 -25 -90 -213 -317 -185 -224 -172 -216 -281 -182
-35 10 -65 18 -66 16 -11 -11 237 -106 279 -106 9 0 88 86 182 199 162 194
231 261 268 261 31 0 20 15 -60 81 -118 97 -107 93 -109 48z"/>
<path d="M6118 2805 c67 -91 102 -193 102 -298 0 -234 -156 -563 -364 -773
-129 -129 -246 -184 -395 -184 -82 0 -75 -8 20 -19 138 -18 320 21 449 96 88
51 214 180 273 280 27 45 63 121 80 170 30 84 32 95 32 233 0 112 -5 159 -19
205 -29 95 -93 208 -153 272 -39 42 -47 47 -25 18z"/>
<path d="M14976 2448 l-120 -60 30 -13 c16 -6 42 -29 58 -49 30 -40 525 -1028
545 -1089 7 -21 11 -58 9 -83 -2 -24 -2 -44 -1 -44 2 0 192 95 423 210 l420
210 -6 43 c-4 23 -10 58 -13 77 l-7 35 -14 -40 c-19 -59 -52 -106 -105 -153
-48 -42 -371 -212 -437 -230 -52 -14 -100 1 -134 41 -15 17 -142 262 -282 543
-219 440 -256 520 -260 567 -2 31 1 63 7 76 7 11 10 21 9 20 -2 0 -57 -27
-122 -61z"/>
<path d="M6756 2432 c4 -25 0 -60 -10 -96 -17 -59 -403 -962 -455 -1063 -28
-57 -57 -90 -94 -110 -15 -8 2 -18 92 -56 61 -26 111 -47 113 -47 2 0 1 22 0
50 -2 27 2 66 8 87 14 44 490 1155 499 1164 3 4 38 -2 76 -11 39 -10 71 -17
72 -16 2 1 -64 31 -145 66 -81 34 -150 65 -155 67 -4 3 -5 -13 -1 -35z"/>
<path d="M7243 2226 c100 -97 129 -238 77 -376 -33 -88 -120 -177 -205 -209
-53 -20 -73 -23 -167 -18 -106 5 -108 4 -102 -17 2 -11 45 -198 93 -414 49
-216 92 -397 97 -402 11 -11 174 -81 174 -75 0 2 -11 20 -25 40 -13 20 -34 62
-46 93 -20 53 -180 743 -174 750 2 2 40 -2 85 -9 205 -30 351 33 418 180 83
180 -4 367 -223 478 l-50 26 48 -47z"/>
<path d="M14475 2193 c-84 -24 -81 -21 -51 -52 36 -37 46 -78 48 -196 l1 -100
7 115 c8 127 15 171 37 213 8 16 13 30 11 32 -2 1 -25 -4 -53 -12z"/>
<path d="M9712 2019 c-23 -56 -41 -104 -39 -106 2 -1 50 40 106 93 56 53 101
98 99 99 -2 1 -30 5 -64 9 l-60 7 -42 -102z"/>
<path d="M7936 1943 c-9 -25 -15 -48 -13 -49 2 -2 25 8 52 21 53 27 126 32
204 14 24 -5 45 -8 48 -6 4 5 -239 67 -261 67 -8 0 -21 -20 -30 -47z"/>
<path d="M13603 1943 l-123 -36 63 -57 c34 -32 97 -108 140 -169 l79 -111 -17
-293 c-9 -161 -15 -306 -13 -322 1 -17 11 110 21 280 10 171 20 311 22 313 1
1 144 -194 316 -434 272 -378 314 -434 320 -413 11 38 10 187 -1 191 -16 5
-626 867 -657 928 -21 40 -28 69 -27 108 0 28 0 52 0 51 -1 0 -56 -16 -123
-36z"/>
<path d="M8248 1913 c7 -3 16 -2 19 1 4 3 -2 6 -13 5 -11 0 -14 -3 -6 -6z"/>
<path d="M8288 1903 c7 -3 16 -2 19 1 4 3 -2 6 -13 5 -11 0 -14 -3 -6 -6z"/>
<path d="M8328 1893 c7 -3 16 -2 19 1 4 3 -2 6 -13 5 -11 0 -14 -3 -6 -6z"/>
<path d="M8368 1883 c7 -3 16 -2 19 1 4 3 -2 6 -13 5 -11 0 -14 -3 -6 -6z"/>
<path d="M8415 1871 c11 -4 36 -11 55 -15 24 -4 29 -3 15 3 -11 4 -36 11 -55
15 -24 4 -29 3 -15 -3z"/>
<path d="M8518 1843 c7 -3 16 -2 19 1 4 3 -2 6 -13 5 -11 0 -14 -3 -6 -6z"/>
<path d="M8558 1833 c7 -3 16 -2 19 1 4 3 -2 6 -13 5 -11 0 -14 -3 -6 -6z"/>
<path d="M14464 1750 c0 -52 1 -74 3 -47 2 26 2 68 0 95 -2 26 -3 4 -3 -48z"/>
<path d="M8598 1823 c7 -3 16 -2 19 1 4 3 -2 6 -13 5 -11 0 -14 -3 -6 -6z"/>
<path d="M8638 1813 c7 -3 16 -2 19 1 4 3 -2 6 -13 5 -11 0 -14 -3 -6 -6z"/>
<path d="M8718 1792 l54 -17 -661 -560 c-363 -308 -660 -563 -660 -566 -1 -5
94 -30 169 -44 20 -4 21 -4 6 3 -17 7 27 49 295 277 172 148 469 401 657 563
189 161 342 295 340 297 -5 5 -236 65 -245 64 -4 -1 16 -8 45 -17z"/>
<path d="M12950 1755 c-25 -7 -71 -21 -102 -30 l-58 -16 48 -47 c26 -26 229
-300 451 -610 222 -309 407 -564 411 -567 8 -5 21 150 19 219 -2 39 -2 40 -8
9 -6 -30 -22 -9 -321 412 -349 492 -385 550 -376 608 7 42 5 43 -64 22z"/>
<path d="M9397 1635 c-169 -62 -333 -206 -405 -355 -116 -238 -116 -533 0
-752 73 -138 230 -278 348 -313 16 -4 9 4 -20 22 -176 115 -266 378 -239 705
16 195 49 322 117 453 46 87 147 192 221 228 57 28 43 36 -22 12z"/>
<path d="M14454 1560 c0 -52 1 -74 3 -47 2 26 2 68 0 95 -2 26 -3 4 -3 -48z"/>
<path d="M9873 1609 c200 -111 293 -382 258 -748 -35 -357 -159 -577 -376
-664 -50 -20 -26 -22 37 -3 120 37 259 131 342 232 58 70 127 212 151 307 38
157 29 347 -25 489 -52 140 -194 301 -325 369 -89 47 -139 61 -62 18z"/>
<path d="M12150 1598 c24 -40 26 -107 5 -197 -23 -96 -11 -84 15 16 13 48 38
116 56 150 l33 63 -65 0 -64 0 20 -32z"/>
<path d="M11225 1570 c-40 -4 -55 -8 -43 -14 31 -14 87 -110 143 -243 l55
-133 -106 -376 c-58 -207 -104 -378 -102 -380 2 -2 51 161 108 361 57 201 106
365 109 365 4 0 100 -221 215 -490 115 -270 213 -487 217 -483 9 11 81 274 76
279 -2 3 -10 -17 -16 -43 -10 -39 -14 -45 -22 -31 -12 22 -338 791 -390 922
-52 130 -63 185 -45 236 l14 40 -77 -2 c-42 -1 -103 -4 -136 -8z"/>
<path d="M10548 1533 c-49 -2 -88 -6 -88 -10 0 -3 13 -20 28 -37 17 -20 134
-281 312 -694 156 -364 286 -659 289 -657 6 7 60 185 61 200 0 6 -4 5 -8 -2
-7 -11 -375 847 -437 1020 -29 78 -32 133 -9 165 15 22 15 22 -23 20 -21 -1
-77 -4 -125 -5z"/>
<path d="M14444 1375 c0 -49 1 -71 3 -48 2 23 2 64 0 90 -2 26 -3 8 -3 -42z"/>
<path d="M12101 1204 c-18 -64 -31 -118 -28 -120 2 -2 18 48 36 112 18 64 31
118 28 120 -2 2 -18 -48 -36 -112z"/>
<path d="M14434 1185 c0 -49 1 -71 3 -48 2 23 2 64 0 90 -2 26 -3 8 -3 -42z"/>
<path d="M14424 995 c0 -49 1 -71 3 -48 2 23 2 64 0 90 -2 26 -3 8 -3 -42z"/>
<path d="M12041 989 c-12 -45 -20 -83 -18 -85 2 -2 14 32 26 77 12 45 20 83
18 85 -2 2 -14 -32 -26 -77z"/>
<path d="M13723 840 c0 -47 2 -66 4 -42 2 23 2 61 0 85 -2 23 -4 4 -4 -43z"/>
<path d="M11991 809 c-12 -45 -20 -83 -18 -85 2 -2 14 32 26 77 12 45 20 83
18 85 -2 2 -14 -32 -26 -77z"/>
<path d="M11941 629 c-12 -45 -20 -83 -18 -85 2 -2 14 32 26 77 12 45 20 83
18 85 -2 2 -14 -32 -26 -77z"/>
<path d="M7658 593 c7 -3 16 -2 19 1 4 3 -2 6 -13 5 -11 0 -14 -3 -6 -6z"/>
<path d="M7691 586 c7 -7 251 -67 256 -63 3 4 -236 67 -253 67 -4 0 -5 -2 -3
-4z"/>
<path d="M11906 504 c-4 -14 -5 -28 -3 -31 3 -2 8 8 11 23 4 14 5 28 3 31 -3
2 -8 -8 -11 -23z"/>
<path d="M7961 516 c7 -7 251 -67 256 -63 3 4 -236 67 -253 67 -4 0 -5 -2 -3
-4z"/>
<path d="M8561 464 c-64 -39 -135 -51 -223 -35 -102 18 -77 6 59 -28 70 -18
136 -34 145 -37 13 -4 24 10 48 62 16 37 29 68 28 69 -2 1 -27 -13 -57 -31z"/>
<path d="M8238 443 c7 -3 16 -2 19 1 4 3 -2 6 -13 5 -11 0 -14 -3 -6 -6z"/>
<path d="M11156 384 c-4 -14 -5 -28 -3 -31 3 -2 8 8 11 23 4 14 5 28 3 31 -3
2 -8 -8 -11 -23z"/>
</g>
</svg>
