<svg data-v-decfdd8a="" version="1.0" xmlns="http://www.w3.org/2000/svg"
     xmlns:xlink="http://www.w3.org/1999/xlink"  height="24" width="24"
     viewBox="0 0 24 24" color-interpolation-filters="sRGB" data-encore-id="icon" fill="white">

  <symbol id="linkedin">
    <path d="M19 0h-14c-2.761 0-5 2.239-5 5v14c0 2.761 2.239 5 5 5h14c2.762 0 5-2.239 5-5v-14c0-2.761-2.238-5-5-5zm-11 19h-3v-11h3v11zm-1.5-12.268c-.966 0-1.75-.79-1.75-1.764s.784-1.764 1.75-1.764 1.75.79 1.75 1.764-.783 1.764-1.75 1.764zm13.5 12.268h-3v-5.604c0-3.368-4-3.113-4 0v5.604h-3v-11h3v1.765c1.396-2.586 7-2.777 7 2.476v6.759z"/>
  </symbol>

  <symbol id="github">
    <path d="M12 0c-6.626 0-12 5.373-12 12 0 5.302 3.438 9.8 8.207 11.387.599.111.793-.261.793-.577v-2.234c-3.338.726-4.033-1.416-4.033-1.416-.546-1.387-1.333-1.756-1.333-1.756-1.089-.745.083-.729.083-.729 1.205.084 1.839 1.237 1.839 1.237 1.07 1.834 2.807 1.304 3.492.997.107-.775.418-1.305.762-1.604-2.665-.305-5.467-1.334-5.467-5.931 0-1.311.469-2.381 1.236-3.221-.124-.303-.535-1.524.117-3.176 0 0 1.008-.322 3.301 1.23.957-.266 1.983-.399 3.003-.404 1.02.005 2.047.138 3.006.404 2.291-1.552 3.297-1.23 3.297-1.23.653 1.653.242 2.874.118 3.176.77.84 1.235 1.911 1.235 3.221 0 4.609-2.807 5.624-5.479 5.921.43.372.823 1.102.823 2.222v3.293c0 .319.192.694.801.576 4.765-1.589 8.199-6.086 8.199-11.386 0-6.627-5.373-12-12-12z"/>
  </symbol>

  <symbol id="like">
    <path d="M16,9.1c0-0.8-0.3-1.1-0.6-1.3c0.2-0.3,0.3-0.7,0.3-1.2c0-1-0.8-1.7-2.1-1.7h-3.1c0.1-0.5,0.2-1.3,0.2-1.8 c0-1.1-0.3-2.4-1.2-3C9.3,0.1,9,0,8.7,0C8.1,0,7.7,0.2,7.6,0.4C7.5,0.5,7.5,0.6,7.5,0.7L7.6,3c0,0.2,0,0.4-0.1,0.5L5.7,6.6 c0,0-0.1,0.1-0.1,0.1l0,0l0,0L5.3,6.8C5.1,7,5,7.2,5,7.4v6.1c0,0.2,0.1,0.4,0.2,0.5c0.1,0.1,1,1,2,1h5.2c0.9,0,1.4-0.3,1.8-0.9 c0.3-0.5,0.2-1,0.1-1.4c0.5-0.2,0.9-0.5,1.1-1.2c0.1-0.4,0-0.8-0.2-1C15.6,10.3,16,9.9,16,9.1z"></path>
    <path d="M3.3,6H0.7C0.3,6,0,6.3,0,6.7v8.5C0,15.7,0.3,16,0.7,16h2.5C3.7,16,4,15.7,4,15.3V6.7C4,6.3,3.7,6,3.3,6z"></path>
  </symbol>

  <symbol id="send">
    <path d="M16.6915026,12.4744748 L3.50612381,13.2599618 C3.19218622,13.2599618 3.03521743,13.4170592 3.03521743,13.5741566 L1.15159189,20.0151496 C0.8376543,20.8006365 0.99,21.89 1.77946707,22.52 C2.41,22.99 3.50612381,23.1 4.13399899,22.8429026 L21.714504,14.0454487 C22.6563168,13.5741566 23.1272231,12.6315722 22.9702544,11.6889879 C22.8132856,11.0605983 22.3423792,10.4322088 21.714504,10.118014 L4.13399899,1.16346272 C3.34915502,0.9 2.40734225,1.00636533 1.77946707,1.4776575 C0.994623095,2.10604706 0.8376543,3.0486314 1.15159189,3.99121575 L3.03521743,10.4322088 C3.03521743,10.5893061 3.34915502,10.7464035 3.50612381,10.7464035 L16.6915026,11.5318905 C16.6915026,11.5318905 17.1624089,11.5318905 17.1624089,12.0031827 C17.1624089,12.4744748 16.6915026,12.4744748 16.6915026,12.4744748 Z"></path>
  </symbol>
</svg>
